<?xml version="1.0" encoding="UTF-8"?>
<svg version="1.1" xmlns="http://www.w3.org/2000/svg" width="128" height="128">
<path d="M0 0 C10.23 0 20.46 0 31 0 C31.99 3.465 31.99 3.465 33 7 C35.04940196 13.04201925 38.02182316 16.57050672 43.5078125 19.87109375 C50.87692941 23.20914201 57.44080674 21.84450903 65 20 C67.00695291 23.45434314 69.00436779 26.9141063 71 30.375 C71.57234375 31.35984375 72.1446875 32.3446875 72.734375 33.359375 C73.27578125 34.30039062 73.8171875 35.24140625 74.375 36.2109375 C75.12910156 37.51490479 75.12910156 37.51490479 75.8984375 38.84521484 C77 41 77 41 77 43 C75.93198872 43.91878231 74.81932837 44.78608787 73.6875 45.625 C69.07298248 49.4828861 67.5241353 53.31794951 66.6875 59.1953125 C66.35853802 65.09606802 67.82294311 70.02261087 71 75 C72.89621534 76.98408873 74.74078751 78.40828211 77 80 C73.17078533 88.03714289 68.93194641 95.58748883 64 103 C63.443125 102.855625 62.88625 102.71125 62.3125 102.5625 C54.05710283 100.55443042 47.86177563 99.9173362 40.046875 103.73046875 C35.39024596 106.61864516 32.57348738 110.75504207 31 116 C30.67 117.98 30.34 119.96 30 122 C20.76 122 11.52 122 2 122 C1.34 119.03 0.68 116.06 0 113 C-2.74074875 107.51850251 -6.60232312 104.64612675 -12 102 C-18.83197262 99.91787501 -25.2613664 101.28860099 -32 103 C-36.74001686 95.49595345 -41.22249288 88.04536371 -45 80 C-44.0925 79.360625 -43.185 78.72125 -42.25 78.0625 C-37.76015821 74.28550039 -35.52418177 69.46902315 -34.65234375 63.69921875 C-34.44404263 58.45546456 -35.24906546 53.52481302 -38 49 C-40.16373789 46.74490429 -42.47002636 44.82989874 -45 43 C-43.46688715 37.48431813 -40.81247556 32.97965148 -37.875 28.125 C-37.40707031 27.34125 -36.93914063 26.5575 -36.45703125 25.75 C-35.30981892 23.83017528 -34.1573993 21.91369439 -33 20 C-32.17757812 20.17917969 -31.35515625 20.35835937 -30.5078125 20.54296875 C-21.4452961 22.26966067 -15.13259439 22.01260975 -7.125 17.3125 C-2.2189099 11.9735196 -1.02878774 7.20151416 0 0 Z M-6 46 C-10.01314824 51.9385315 -10.53016709 58.04999585 -10.82421875 65.08203125 C-10.9736199 67.56209034 -11.38762327 69.61439327 -12 72 C-11.65106834 74.28164024 -11.65106834 74.28164024 -10 76 C-5.4261737 77.30587913 -5.4261737 77.30587913 -1.0625 75.9375 C0.49286352 73.10124887 0.46333792 71.17717433 0 68 C-0.66 67.566875 -1.32 67.13375 -2 66.6875 C-4 65 -4 65 -4.37109375 63.03125 C-4.5145533 57.9679719 -3.93349118 54.25829365 -1 50 C4.13007349 44.83354301 7.78246958 42.85244206 15.1875 42.6875 C22.92127153 42.76492374 27.12000878 44.49565981 32.875 49.5 C36.24391812 53.87845924 36.42274196 59.67544079 37 65 C36.0409375 65.4640625 36.0409375 65.4640625 35.0625 65.9375 C33.06389179 66.8345163 33.06389179 66.8345163 32 68 C31.73412169 71.05760057 31.56590119 73.20840805 33.0625 75.9375 C36.21566824 77.66665678 38.62508255 76.8590699 42 76 C44.23148281 72.65277578 44.18496337 72.15092677 43.6875 68.375 C43 63 43 63 42.84375 60.625 C42.30973058 52.93512031 39.91237907 47.49389453 34.25 42.1875 C21.76386141 32.1158081 4.47761472 33.86303454 -6 46 Z M-24 39 C-24.42455791 41.06778033 -24.42455791 41.06778033 -24.5625 43.375 C-24.91779139 47.71100511 -24.91779139 47.71100511 -25.5078125 49.78515625 C-28.05381288 61.24215797 -26.20897039 72.88160307 -20.3046875 82.8671875 C-13.73623261 92.67998043 -5.81039757 98.25211052 5.578125 101.33984375 C18.24999433 103.78453087 30.49071734 101.88235127 41.375 94.8125 C50.94631252 87.49052348 57.25909149 77.01894826 58.9375 65 C59.2240646 60.17487175 58.45420355 55.63838503 57.5390625 50.91015625 C57.041421 48.22361336 56.73575383 45.59490064 56.5 42.875 C56.40013282 38.99293052 56.40013282 38.99293052 54 37 C51.5 36.66666667 51.5 36.66666667 49 37 C46.7508092 38.82703227 46.7508092 38.82703227 46.75 41.5 C46.7508092 44.17296773 46.7508092 44.17296773 49 46 C49.99 46 50.98 46 52 46 C54.7224357 57.42450696 55.36367046 67.70766672 49.74609375 78.3828125 C44.4678969 86.86819708 36.89734514 93.75937707 27.13012695 96.53051758 C17.15374635 98.7293233 4.96157178 97.96455215 -4 93 C-6.16677505 91.44853633 -8.03619638 89.8127418 -10 88 C-10.66 88 -11.32 88 -12 88 C-12.268125 87.43796875 -12.53625 86.8759375 -12.8125 86.296875 C-14.07854327 83.84808078 -15.51929143 81.57471246 -17 79.25 C-23.46238729 68.46884657 -22.85170576 57.96697951 -20 46 C-19.360625 45.855625 -18.72125 45.71125 -18.0625 45.5625 C-16.02454854 45.18992819 -16.02454854 45.18992819 -15 44 C-14.7499227 41.54190002 -14.7499227 41.54190002 -15 39 C-16.82703227 36.7508092 -16.82703227 36.7508092 -19.5 36.75 C-22.17296773 36.7508092 -22.17296773 36.7508092 -24 39 Z " fill="#F27235" transform="translate(48,3)"/>
</svg>
